<mxfile host="app.diagrams.net" modified="2023-11-26T19:38:00.003Z" agent="Mozilla/5.0 (Windows NT 10.0; Win64; x64) AppleWebKit/537.36 (KHTML, like Gecko) Chrome/119.0.0.0 Safari/537.36" etag="inEMqcDDA-corpekgv2j" version="22.1.3" type="github">
  <diagram name="Page-1" id="efa7a0a1-bf9b-a30e-e6df-94a7791c09e9">
    <mxGraphModel dx="1591" dy="683" grid="1" gridSize="10" guides="1" tooltips="1" connect="1" arrows="1" fold="1" page="1" pageScale="1" pageWidth="826" pageHeight="1169" background="none" math="0" shadow="0">
      <root>
        <mxCell id="0" />
        <mxCell id="1" parent="0" />
        <mxCell id="44G9o5r_43lktFPi5Wd--131" value="" style="shape=ext;double=1;whiteSpace=wrap;html=1;aspect=fixed;" vertex="1" parent="1">
          <mxGeometry x="210" y="20" width="650" height="650" as="geometry" />
        </mxCell>
        <mxCell id="44G9o5r_43lktFPi5Wd--119" value="SERVICIO CLIENTES&lt;br&gt;" style="rounded=1;whiteSpace=wrap;html=1;" vertex="1" parent="1">
          <mxGeometry x="480" y="150" width="120" height="60" as="geometry" />
        </mxCell>
        <mxCell id="44G9o5r_43lktFPi5Wd--120" value="SERVICIO PRODUCTOS&lt;br&gt;" style="rounded=1;whiteSpace=wrap;html=1;" vertex="1" parent="1">
          <mxGeometry x="480" y="350" width="120" height="60" as="geometry" />
        </mxCell>
        <mxCell id="44G9o5r_43lktFPi5Wd--121" value="" style="shape=cylinder3;whiteSpace=wrap;html=1;boundedLbl=1;backgroundOutline=1;size=15;" vertex="1" parent="1">
          <mxGeometry x="640" y="150" width="60" height="80" as="geometry" />
        </mxCell>
        <mxCell id="44G9o5r_43lktFPi5Wd--122" value="" style="shape=cylinder3;whiteSpace=wrap;html=1;boundedLbl=1;backgroundOutline=1;size=15;" vertex="1" parent="1">
          <mxGeometry x="640" y="350" width="60" height="80" as="geometry" />
        </mxCell>
        <mxCell id="44G9o5r_43lktFPi5Wd--123" value="" style="shape=image;verticalLabelPosition=bottom;labelBackgroundColor=default;verticalAlign=top;aspect=fixed;imageAspect=0;image=data:image/png,iVBORw0KGgoAAAANSUhEUgAAAOEAAADhCAMAAAAJbSJIAAAAjVBMVEX///9PqkFMqT5JqDpEpjRApS8+pCxGpzb9/vxIqDlDpjLr9eo+pC3z+fJltFn3+/ZdsFHl8uPH4sPb7dnO5suTyIz0+fPf7t19vnTV6dJZr0y63Law1qxUrUam0aBfsVOLxIPC376ezpi527VwuGaEwXup06OBwHh0umqQx4ibzJQpngw1oSCv1qkwoBlD5rxGAAAOgklEQVR4nO1dC3eqOtMuARIIAl6raLHea932/f8/78uEW4KiIvSQ+PVZZ61TdynmIZO5JDPD29sf/vCHP7wa/K4H8OtYR12P4LfxM+t6BL+NGZ52PYTfhYfcfddj+F2ciGGNuh7EbyLChmG+8kr0TGQYBn5dder1gaCBdl0P5LcwiE2Dozfseii/gxEXUT6J8XvXg/kNRCQjaBgvaTEityBoGHTZ9Xhax9gWCTJ9uu16RC1jjI0S8KLrMbWKsYXKDA1r3fWoWsSYXBJka/F1bEaErxE0jPO465G1hBBdJ8hm8UXct5lZQdBA6CVixSWtIgjOjdf18JpjfIMgi6T6TtcDbArfqFqECYj2weKuchFm2mbT9RCb4XRTRjmw1pZ/eJ8gE9RB18N8Ht6dRZgAfXY9zucR3FuE6SROuh7os9g8IqMAW1MP1XMfJMgMv57nNZOHGRruV9eDfQbTR2UUoKXJqHa4r8kp0k9Oo4t9i5vQUJ8Gj5hCAVS385q1XY+gdlv9zmfNKTSMnl7KZltHkaaTiLoedB2Ece0pNAzrp+th18DSqk+Qeen6WAz/GYLMYuhzmPFRfxUmk6jNoVt9RZrA0mUSR89NIcyiJjtvJ/IsQ6rHmVvYf1JI2RzOux78QxjXddjESdTisGZVJ2wqQYtsovfHQ/srcDU4yHjCJRWgg9WvGxjKQJ/KGwyvXmx/gZ7yp6bLp41hAlP57Yxn4iYJtGsGdzB6LqwQYCtuEg8NhZTZi++uOdzGrKmQGihWWpv6jZeh6p7bqIFPmsFVWpv+NF6GTEwDlcV038DrzmGrnEc0b74MmW+q8Lai39BlS6ByCNUk+BXgqrsQP1pQNAw9dc+hmoT3Aix1N6SaxYY5zFXXRCrR2O1OoO6Wm9doA0OAraqqeX6zuwRlj7wfStR7iKGqzncbXimHsl5NjSyo2zBVjYK/2jGHCvttu3bMocKpJ8+ejF4yVDSpNmwlduIM52HXZK7Ci1siqGzCqdfWFDKoeQQ1aEuVsklUlGFb5pCZCzUrFFpk6CrKsD0pVZRhi5pGUYZ+a9ZCVYbtWXxVdekTicGVUJNhWxtRDIr6NC3GFor6pe3Fh6rGFm+T1hiqGh+2tk+jbIx/uzK9DkNVj4Fb2y9Vdq8tbOdwTeH90uYJURlDVfe82znGZ7AVNYdvbx/tHD6huGsilRj1WmFoqtvszGknyicfXROpRjt+G1YzOuT4aWMhqnsEzDBow+YrnX/ptBEiUqXrZZ+veSpAFA3wE0TNF6KyoVOK5rtR5NQ1h9vYNBZT1fvUDZqmJ6K5qsk0GZpqU2Wj3xyLhiYRKxs5ZXiq20AB1O+awH000zU6lAJ7jbxvpENNfpM8WtWNYYIm7rcOVbIM+6cDYYWzgyU8X0dKVS4mETF5Up2ax65H/iju9WWtgvrWPsfhqSBK2QOZK3Ce6o2hdElXGTUb0nG4q65HXQtPWAxFEzCq4Fd2Yq8CVfVIrQp1u+4pvUt6Hat6RtHWx1JkqBcoatnXe1RDn6pd3lyJn8eXoqXwYcwt7B9ditq+dSZ8MJfPUn5/rRKe/QhFd6flIkwQPbAUUV/RTMTHsL1LESmaEPwwlvco6v86xNNtiq/w2qfVrb03tQ98H8UNilq2m7+CfRXFVyFYOYuvIaIJvq9RtF+I4Nvb5iLlDeEX0KIiPkqxlIn0C3nvYCi/ifSotat2HdN5cexGtThFqw0/yOJFbTp318YxEVRlq36aY5j4qC/1llUZ76mYvuwUpm8QQtocEz4B3t9UsyOYeuA963Roaf00BnB0qnA/tubwIf/0FcL6akAlra39zswtQMJUT/PNtduAvD78gk53AWiPibsexK8Cuta9NsMIGGp8THEfo5dnOCX/Lxi+cGiRMtQrNagmBj2kY2JJHUwMqv952m34692DmxiO5/th6ADCMPQBV3TUu59cAteE4XuohBp7cBAzI57P+ynm8ziO5/1gtZW92oGZXTNP0N996xK7jM82MRGHSW3bppYLP1o4EGVghbOrTItahF9CNXnjZzgdbnZ86wrtfhbD4Xa5Dyh8RnZQrGR/NNzwoke0O/wcTrOYwgf7qI1F4l197EwwnenJhcRVRA/iRbzCI40639cx/ImlzcvM+VtPxMpgf89PsWwxyYgnXefd+H2ep6SNwuYVm3Lt85ZwBsIs8hLyXp4lzhs4arOhx6tTSrVCY744hWrahGGhY6HHijYZuf4VhsnLalGQfy4z5G+hIP/VEBuCMzTLjuzRlA7JOUOhm8aawrt3/6shNsT7VYZ8dZp54X7CsLhoYVW1gEltiOOJxsTzKlyQ0POulkMm+0z+dHQ1hGDe1/XbvfnXvun6HCbnHzmnMkO+3XWpSwfrL057/DU34lmqer1lwNbs9+VYB8tdjIw42JTqXKLTHI53p/uYUHNX7mg12gTM9/rcrxMqwjMYrj7Z/eazRYlkBUOQw6KitsyQfbRKUzjdztwetWaMX79nIgOZZ1DG4TcGzYzccmbP9HjGmNoEIYKP2Z399SbAtmud3vwvbHI34yzlp0fBGRuxRcAJ239st/t/6eNxPgi7HaUu+02pELiCoWeJBiFhmMvGgRp0Jj+p9T8Ms26unNUZHEBub9ZvQ8O2KOWH7/Kcb2xibKJptJwzcTDdZKac+ZkbKnKITEoswv+uJ6Q3nzDZRX44ncDoTMuyXJqMfPRJ6Ww4Ha1n8M29lfhVFQx59nGuTRNdmlwUeicbGeUuRU60wjC4+fy8GnreOuAlPV89/PUxXE/4NIpF5Gwg/fR2kOyE0uZjoxXmHlVg4ePy42cG3giK86W6srOGj0nOKaXnJF1hbCE79ZTHUGlDRYredYb8vDzvmMUZos/dcXbcBS4xzGtp4x5cRDKJ49qYzpJPA3BshfeDflNBM0PdSP5NPn//A9klv434Wsm+bI0NO4tqYHjzaJg8mAFBhf8xhS/uCWuiiiEvp3ZFhoZJGFy+PNz54dLz/iFCCSfIRvEJdgDdPD1kbIvluvzmNBMKaLRbtOaE3d/8UnZd/qYq/ots1Duz8KwTRY+EV1pVMTy5ZYbm12S1nx0DA0QdWe5FkMj8AGHgX6ZY78huUBgfNr9ixh2MNl8Q8E7u4llA292sVIT5ioUTAu0Hs5Jf9sCkchL+xIr7VzHcuIJRl3Spt/20eFJZWVR/JIaMr3DazuxLPjMQqfTEb4SKWDIoGJJCf/IefMnoI1tg6LCpzsopv025MdQWrHUR+lQx/HZFTfMp+TTOiecJlsumZYbM3hSzBt+K+ulz5p09RKMN8pI99HeYw4IhLEuSLAg43s6FDxim+evwo3Tq7dlSD9oqhmDyC2shM0w7V5SLbmWGYyp2MwKGWduYE5vPvriMwfhm8wZHvIWUcoY0uRbKEnD2UB03vx94ZZak25H09odBhbUAucxPy3l8KHV541E/lf9MZigJFcxbPodMickpTRCjZnL2LjM8FQwhZsvnaorz9hCDC4ZwSlyUk1Yw9EHR5JycOSqdu/LoonSaLjMcVTLksZfoj4IcZW1zSnMIwpIy5BoklVj278hOZwlaLRJpS4Iv3nsMuX7LZTlhKC47vjUgP7mbDNcCQ5A8SSBCXMwOvEtWaBIEDLNOnUN4EDvOa4RR/l5jYCC3oDu5opAMelcZwmPIbVTCUKoE565QKefjLsP0Z3jxNhUVMaykTB6gtb7wLtileAzzzcZqGpvxeONace6Sh7RcfDgxxa/mDC/6gXg9Kf0vYSieFfCgq/QW81vrUGQISlGKvfg6HNxn+La02dgJZj77SdDFIL22KBNsHQq3mPYu9mnekim0i8fsxGUpnfINLDlOO8i69HIdpj/73BEXFuJCULvwS0HmZIbMqTNJvJusJYcKJFnqSkOkdJSrDCHFkQjbhbwgV3rzJVhVtxRALSWGbCVXMHxbufKQmO3tZUrLN6QOLJxh8TD82ZW0yynYVyE7Y2BLbj5naMsb+VPmn5NA+IeQ7y+KwSiYD6tk8dmzFIRvXc2Q97Qm+V8z21b4Bj6SRPggMfxAbnxlJ/rLlR43eypiqJYoRUllRGzG6E68U8h3ngTNCVtVuLyzz1SYMDaw8YH0qXiuUDuRhU/QqQUV1suHSKNwJcTkGSegoGdHFxz5eyHztOgBQlgMm7fcx4wLMXWW7AvxRApwueMjbB+Cz4nLxeEjnp+ciXIIZtfdprfxQRu4RTyy4/7/B/w2/GYRcj6fPvf4zewuA+7y76f8NiGvRnApJf3j92E7LuRyCLEpPfK7RLFpCyvAGScl78heDQeO43jDiUtM2pd2R5wB37UxzGAN1wwW7Flahmztw9U8Kfiw+ysmVJtPTOAwx+bxYrRLSl2JvUv/yvmGf6Hu12RPKJ5lz3c0x0kzjJ4bsKexMXhUbZi9xFous4ILhFxi2XiXj2Ecw1YBDr4nAaZxsVSdGcqrbE2KMfxnsWFIi3kaEJzWACB2AbExdam5KW13+WemwjnOFvvVZrX/YsHy5xyd2RJf/kt/h//lkj7eYct12Q17s+Jxrv9HU9j/2F2OOPt4TrTrRi5ERDi/nb9xe5bLBofnB2Foi/9Ri4NwWJRi67gs6Y/9mdL0EvY/9m2YHD8ut/M8z/P9d36IKk6/wwURfpn8ThD+wXazmvwMxVu9r4eAMQPI6XSdfcokcpqeA1KLB+KiFxKOfyarzVY+4J8uFovtdvuRYTGcXm43Rus1uyq9Yru4es1/hfcjXkUDbzCKtvuYGIo3DH4CbJkW+jw8UPW7zdbEkNhSejezeyioulhHbHulQhnf0qrz1V34LirxCedIk3yCxzDC5VUXmsh6pewvCHSJZMmGVON+H1eQbJ0KC9FH5KX0DAuwYZu7n1v00acdvFg+uwO5P8g6/kSjUfQxo+e9Nik9j8I52rBLR5gTafdwrEvqWS0Mj7FNmX9so+PLVlj60eJw2EavZCT+8Ic//AHwf3u91m6g/KpnAAAAAElFTkSuQmCC;" vertex="1" parent="1">
          <mxGeometry x="680" y="200" width="40" height="40" as="geometry" />
        </mxCell>
        <mxCell id="44G9o5r_43lktFPi5Wd--124" value="" style="shape=image;verticalLabelPosition=bottom;labelBackgroundColor=default;verticalAlign=top;aspect=fixed;imageAspect=0;image=data:image/png,iVBORw0KGgoAAAANSUhEUgAAAOEAAADhCAMAAAAJbSJIAAAAjVBMVEX///9PqkFMqT5JqDpEpjRApS8+pCxGpzb9/vxIqDlDpjLr9eo+pC3z+fJltFn3+/ZdsFHl8uPH4sPb7dnO5suTyIz0+fPf7t19vnTV6dJZr0y63Law1qxUrUam0aBfsVOLxIPC376ezpi527VwuGaEwXup06OBwHh0umqQx4ibzJQpngw1oSCv1qkwoBlD5rxGAAAOgklEQVR4nO1dC3eqOtMuARIIAl6raLHea932/f8/78uEW4KiIvSQ+PVZZ61TdynmIZO5JDPD29sf/vCHP7wa/K4H8OtYR12P4LfxM+t6BL+NGZ52PYTfhYfcfddj+F2ciGGNuh7EbyLChmG+8kr0TGQYBn5dder1gaCBdl0P5LcwiE2Dozfseii/gxEXUT6J8XvXg/kNRCQjaBgvaTEityBoGHTZ9Xhax9gWCTJ9uu16RC1jjI0S8KLrMbWKsYXKDA1r3fWoWsSYXBJka/F1bEaErxE0jPO465G1hBBdJ8hm8UXct5lZQdBA6CVixSWtIgjOjdf18JpjfIMgi6T6TtcDbArfqFqECYj2weKuchFm2mbT9RCb4XRTRjmw1pZ/eJ8gE9RB18N8Ht6dRZgAfXY9zucR3FuE6SROuh7os9g8IqMAW1MP1XMfJMgMv57nNZOHGRruV9eDfQbTR2UUoKXJqHa4r8kp0k9Oo4t9i5vQUJ8Gj5hCAVS385q1XY+gdlv9zmfNKTSMnl7KZltHkaaTiLoedB2Ece0pNAzrp+th18DSqk+Qeen6WAz/GYLMYuhzmPFRfxUmk6jNoVt9RZrA0mUSR89NIcyiJjtvJ/IsQ6rHmVvYf1JI2RzOux78QxjXddjESdTisGZVJ2wqQYtsovfHQ/srcDU4yHjCJRWgg9WvGxjKQJ/KGwyvXmx/gZ7yp6bLp41hAlP57Yxn4iYJtGsGdzB6LqwQYCtuEg8NhZTZi++uOdzGrKmQGihWWpv6jZeh6p7bqIFPmsFVWpv+NF6GTEwDlcV038DrzmGrnEc0b74MmW+q8Lai39BlS6ByCNUk+BXgqrsQP1pQNAw9dc+hmoT3Aix1N6SaxYY5zFXXRCrR2O1OoO6Wm9doA0OAraqqeX6zuwRlj7wfStR7iKGqzncbXimHsl5NjSyo2zBVjYK/2jGHCvttu3bMocKpJ8+ejF4yVDSpNmwlduIM52HXZK7Ci1siqGzCqdfWFDKoeQQ1aEuVsklUlGFb5pCZCzUrFFpk6CrKsD0pVZRhi5pGUYZ+a9ZCVYbtWXxVdekTicGVUJNhWxtRDIr6NC3GFor6pe3Fh6rGFm+T1hiqGh+2tk+jbIx/uzK9DkNVj4Fb2y9Vdq8tbOdwTeH90uYJURlDVfe82znGZ7AVNYdvbx/tHD6huGsilRj1WmFoqtvszGknyicfXROpRjt+G1YzOuT4aWMhqnsEzDBow+YrnX/ptBEiUqXrZZ+veSpAFA3wE0TNF6KyoVOK5rtR5NQ1h9vYNBZT1fvUDZqmJ6K5qsk0GZpqU2Wj3xyLhiYRKxs5ZXiq20AB1O+awH000zU6lAJ7jbxvpENNfpM8WtWNYYIm7rcOVbIM+6cDYYWzgyU8X0dKVS4mETF5Up2ax65H/iju9WWtgvrWPsfhqSBK2QOZK3Ce6o2hdElXGTUb0nG4q65HXQtPWAxFEzCq4Fd2Yq8CVfVIrQp1u+4pvUt6Hat6RtHWx1JkqBcoatnXe1RDn6pd3lyJn8eXoqXwYcwt7B9ditq+dSZ8MJfPUn5/rRKe/QhFd6flIkwQPbAUUV/RTMTHsL1LESmaEPwwlvco6v86xNNtiq/w2qfVrb03tQ98H8UNilq2m7+CfRXFVyFYOYuvIaIJvq9RtF+I4Nvb5iLlDeEX0KIiPkqxlIn0C3nvYCi/ifSotat2HdN5cexGtThFqw0/yOJFbTp318YxEVRlq36aY5j4qC/1llUZ76mYvuwUpm8QQtocEz4B3t9UsyOYeuA963Roaf00BnB0qnA/tubwIf/0FcL6akAlra39zswtQMJUT/PNtduAvD78gk53AWiPibsexK8Cuta9NsMIGGp8THEfo5dnOCX/Lxi+cGiRMtQrNagmBj2kY2JJHUwMqv952m34692DmxiO5/th6ADCMPQBV3TUu59cAteE4XuohBp7cBAzI57P+ynm8ziO5/1gtZW92oGZXTNP0N996xK7jM82MRGHSW3bppYLP1o4EGVghbOrTItahF9CNXnjZzgdbnZ86wrtfhbD4Xa5Dyh8RnZQrGR/NNzwoke0O/wcTrOYwgf7qI1F4l197EwwnenJhcRVRA/iRbzCI40639cx/ImlzcvM+VtPxMpgf89PsWwxyYgnXefd+H2ep6SNwuYVm3Lt85ZwBsIs8hLyXp4lzhs4arOhx6tTSrVCY744hWrahGGhY6HHijYZuf4VhsnLalGQfy4z5G+hIP/VEBuCMzTLjuzRlA7JOUOhm8aawrt3/6shNsT7VYZ8dZp54X7CsLhoYVW1gEltiOOJxsTzKlyQ0POulkMm+0z+dHQ1hGDe1/XbvfnXvun6HCbnHzmnMkO+3XWpSwfrL057/DU34lmqer1lwNbs9+VYB8tdjIw42JTqXKLTHI53p/uYUHNX7mg12gTM9/rcrxMqwjMYrj7Z/eazRYlkBUOQw6KitsyQfbRKUzjdztwetWaMX79nIgOZZ1DG4TcGzYzccmbP9HjGmNoEIYKP2Z399SbAtmud3vwvbHI34yzlp0fBGRuxRcAJ239st/t/6eNxPgi7HaUu+02pELiCoWeJBiFhmMvGgRp0Jj+p9T8Ms26unNUZHEBub9ZvQ8O2KOWH7/Kcb2xibKJptJwzcTDdZKac+ZkbKnKITEoswv+uJ6Q3nzDZRX44ncDoTMuyXJqMfPRJ6Ww4Ha1n8M29lfhVFQx59nGuTRNdmlwUeicbGeUuRU60wjC4+fy8GnreOuAlPV89/PUxXE/4NIpF5Gwg/fR2kOyE0uZjoxXmHlVg4ePy42cG3giK86W6srOGj0nOKaXnJF1hbCE79ZTHUGlDRYredYb8vDzvmMUZos/dcXbcBS4xzGtp4x5cRDKJ49qYzpJPA3BshfeDflNBM0PdSP5NPn//A9klv434Wsm+bI0NO4tqYHjzaJg8mAFBhf8xhS/uCWuiiiEvp3ZFhoZJGFy+PNz54dLz/iFCCSfIRvEJdgDdPD1kbIvluvzmNBMKaLRbtOaE3d/8UnZd/qYq/ots1Duz8KwTRY+EV1pVMTy5ZYbm12S1nx0DA0QdWe5FkMj8AGHgX6ZY78huUBgfNr9ixh2MNl8Q8E7u4llA292sVIT5ioUTAu0Hs5Jf9sCkchL+xIr7VzHcuIJRl3Spt/20eFJZWVR/JIaMr3DazuxLPjMQqfTEb4SKWDIoGJJCf/IefMnoI1tg6LCpzsopv025MdQWrHUR+lQx/HZFTfMp+TTOiecJlsumZYbM3hSzBt+K+ulz5p09RKMN8pI99HeYw4IhLEuSLAg43s6FDxim+evwo3Tq7dlSD9oqhmDyC2shM0w7V5SLbmWGYyp2MwKGWduYE5vPvriMwfhm8wZHvIWUcoY0uRbKEnD2UB03vx94ZZak25H09odBhbUAucxPy3l8KHV541E/lf9MZigJFcxbPodMickpTRCjZnL2LjM8FQwhZsvnaorz9hCDC4ZwSlyUk1Yw9EHR5JycOSqdu/LoonSaLjMcVTLksZfoj4IcZW1zSnMIwpIy5BoklVj278hOZwlaLRJpS4Iv3nsMuX7LZTlhKC47vjUgP7mbDNcCQ5A8SSBCXMwOvEtWaBIEDLNOnUN4EDvOa4RR/l5jYCC3oDu5opAMelcZwmPIbVTCUKoE565QKefjLsP0Z3jxNhUVMaykTB6gtb7wLtileAzzzcZqGpvxeONace6Sh7RcfDgxxa/mDC/6gXg9Kf0vYSieFfCgq/QW81vrUGQISlGKvfg6HNxn+La02dgJZj77SdDFIL22KBNsHQq3mPYu9mnekim0i8fsxGUpnfINLDlOO8i69HIdpj/73BEXFuJCULvwS0HmZIbMqTNJvJusJYcKJFnqSkOkdJSrDCHFkQjbhbwgV3rzJVhVtxRALSWGbCVXMHxbufKQmO3tZUrLN6QOLJxh8TD82ZW0yynYVyE7Y2BLbj5naMsb+VPmn5NA+IeQ7y+KwSiYD6tk8dmzFIRvXc2Q97Qm+V8z21b4Bj6SRPggMfxAbnxlJ/rLlR43eypiqJYoRUllRGzG6E68U8h3ngTNCVtVuLyzz1SYMDaw8YH0qXiuUDuRhU/QqQUV1suHSKNwJcTkGSegoGdHFxz5eyHztOgBQlgMm7fcx4wLMXWW7AvxRApwueMjbB+Cz4nLxeEjnp+ciXIIZtfdprfxQRu4RTyy4/7/B/w2/GYRcj6fPvf4zewuA+7y76f8NiGvRnApJf3j92E7LuRyCLEpPfK7RLFpCyvAGScl78heDQeO43jDiUtM2pd2R5wB37UxzGAN1wwW7Flahmztw9U8Kfiw+ysmVJtPTOAwx+bxYrRLSl2JvUv/yvmGf6Hu12RPKJ5lz3c0x0kzjJ4bsKexMXhUbZi9xFous4ILhFxi2XiXj2Ecw1YBDr4nAaZxsVSdGcqrbE2KMfxnsWFIi3kaEJzWACB2AbExdam5KW13+WemwjnOFvvVZrX/YsHy5xyd2RJf/kt/h//lkj7eYct12Q17s+Jxrv9HU9j/2F2OOPt4TrTrRi5ERDi/nb9xe5bLBofnB2Foi/9Ri4NwWJRi67gs6Y/9mdL0EvY/9m2YHD8ut/M8z/P9d36IKk6/wwURfpn8ThD+wXazmvwMxVu9r4eAMQPI6XSdfcokcpqeA1KLB+KiFxKOfyarzVY+4J8uFovtdvuRYTGcXm43Rus1uyq9Yru4es1/hfcjXkUDbzCKtvuYGIo3DH4CbJkW+jw8UPW7zdbEkNhSejezeyioulhHbHulQhnf0qrz1V34LirxCedIk3yCxzDC5VUXmsh6pewvCHSJZMmGVON+H1eQbJ0KC9FH5KX0DAuwYZu7n1v00acdvFg+uwO5P8g6/kSjUfQxo+e9Nik9j8I52rBLR5gTafdwrEvqWS0Mj7FNmX9so+PLVlj60eJw2EavZCT+8Ic//AHwf3u91m6g/KpnAAAAAElFTkSuQmCC;" vertex="1" parent="1">
          <mxGeometry x="690" y="395" width="40" height="40" as="geometry" />
        </mxCell>
        <mxCell id="44G9o5r_43lktFPi5Wd--125" value="" style="shape=image;verticalLabelPosition=bottom;labelBackgroundColor=default;verticalAlign=top;aspect=fixed;imageAspect=0;image=https://pbs.twimg.com/profile_images/1235868806079057921/fTL08u_H_400x400.png;" vertex="1" parent="1">
          <mxGeometry x="580" y="190" width="50" height="50" as="geometry" />
        </mxCell>
        <mxCell id="44G9o5r_43lktFPi5Wd--126" value="" style="shape=image;verticalLabelPosition=bottom;labelBackgroundColor=default;verticalAlign=top;aspect=fixed;imageAspect=0;image=https://pbs.twimg.com/profile_images/1235868806079057921/fTL08u_H_400x400.png;" vertex="1" parent="1">
          <mxGeometry x="580" y="390" width="50" height="50" as="geometry" />
        </mxCell>
        <mxCell id="44G9o5r_43lktFPi5Wd--135" style="edgeStyle=orthogonalEdgeStyle;rounded=0;orthogonalLoop=1;jettySize=auto;html=1;" edge="1" parent="1" source="44G9o5r_43lktFPi5Wd--128">
          <mxGeometry relative="1" as="geometry">
            <mxPoint x="320" y="310" as="targetPoint" />
          </mxGeometry>
        </mxCell>
        <mxCell id="44G9o5r_43lktFPi5Wd--128" value="" style="shape=image;verticalLabelPosition=bottom;labelBackgroundColor=default;verticalAlign=top;aspect=fixed;imageAspect=0;image=https://cdn3.vectorstock.com/i/1000x1000/04/52/client-icon-male-person-user-with-computer-vector-22850452.jpg;" vertex="1" parent="1">
          <mxGeometry x="10" y="263.6" width="80" height="86.4" as="geometry" />
        </mxCell>
        <mxCell id="44G9o5r_43lktFPi5Wd--138" value="API GATEWAY" style="rounded=1;whiteSpace=wrap;html=1;" vertex="1" parent="1">
          <mxGeometry x="320" y="270" width="120" height="60" as="geometry" />
        </mxCell>
        <mxCell id="44G9o5r_43lktFPi5Wd--140" value="" style="shape=singleArrow;direction=south;whiteSpace=wrap;html=1;rotation=-128;" vertex="1" parent="1">
          <mxGeometry x="440" y="210" width="20" height="60" as="geometry" />
        </mxCell>
        <mxCell id="44G9o5r_43lktFPi5Wd--142" value="" style="shape=singleArrow;direction=south;whiteSpace=wrap;html=1;rotation=-60;" vertex="1" parent="1">
          <mxGeometry x="430" y="330" width="20" height="60" as="geometry" />
        </mxCell>
      </root>
    </mxGraphModel>
  </diagram>
</mxfile>
